# xmcd
#
# Track frame offsets:
#	150
#	17942
#	30657
#	45068
#	66602
#	81797
#	93128
#	115276
#	130651
#	148972
#	166887
#	187567
#
# Disc length: 2696 seconds
#
# Revision: 1
# Processed by: cddbd v1.5.2PL0 Copyright (c) Steve Scherf et al.
# Submitted via: audiograbber 1.83.01
#
DISCID=940a860c
DTITLE=Utlagar - Tvennir Timar
DYEAR=2008
DGENRE=Country
TTITLE0=Tvennir Tímar
TTITLE1=Picked Fences
TTITLE2=Grái Kötturinn
TTITLE3=Röðull(Friðsælt Samráð Auðfélaga)
TTITLE4=Meðlagið
TTITLE5=I Need Alot of Things to Do
TTITLE6=Söngvaskáld
TTITLE7=Er Blús í Gangi?
TTITLE8=Varúlfar
TTITLE9=Sálusorti
TTITLE10=Melancholy Fields
TTITLE11=Fiesta
EXTD=www.myspace.com/utlagar
EXTT0=
EXTT1=
EXTT2=
EXTT3=
EXTT4=
EXTT5=
EXTT6=
EXTT7=
EXTT8=
EXTT9=
EXTT10=
EXTT11=
PLAYORDER=
